<mxfile host="app.diagrams.net" modified="2023-11-17T19:33:32.901Z" agent="Mozilla/5.0 (Windows NT 10.0; Win64; x64) AppleWebKit/537.36 (KHTML, like Gecko) Chrome/119.0.0.0 Safari/537.36" etag="bcWKxrhTMAFle-RPym_q" version="22.1.3" type="device">
  <diagram name="Page-1" id="HCyG9C-WCiqZoLqeZVIj">
    <mxGraphModel dx="1502" dy="564" grid="0" gridSize="10" guides="1" tooltips="1" connect="1" arrows="1" fold="1" page="1" pageScale="1" pageWidth="827" pageHeight="1169" background="#ffffff" math="0" shadow="0">
      <root>
        <mxCell id="0" />
        <mxCell id="1" parent="0" />
        <mxCell id="hRZYR1ejV4vaYIrMXX3N-1" value="Faculty" style="shape=umlActor;verticalLabelPosition=bottom;verticalAlign=top;html=1;outlineConnect=0;" parent="1" vertex="1">
          <mxGeometry x="92" y="124" width="30" height="60" as="geometry" />
        </mxCell>
        <mxCell id="SwqbOc6EIea9CYFpNQk6-1" value="submit project closure report" style="ellipse;whiteSpace=wrap;html=1;" parent="1" vertex="1">
          <mxGeometry x="214" y="38" width="143" height="51" as="geometry" />
        </mxCell>
        <mxCell id="SwqbOc6EIea9CYFpNQk6-10" value="manage inventory" style="ellipse;whiteSpace=wrap;html=1;" parent="1" vertex="1">
          <mxGeometry x="261" y="154" width="122" height="58" as="geometry" />
        </mxCell>
        <mxCell id="SwqbOc6EIea9CYFpNQk6-11" value="view staff information" style="ellipse;whiteSpace=wrap;html=1;" parent="1" vertex="1">
          <mxGeometry x="253" y="93" width="130" height="52" as="geometry" />
        </mxCell>
        <mxCell id="SwqbOc6EIea9CYFpNQk6-12" value="manage project information" style="ellipse;whiteSpace=wrap;html=1;" parent="1" vertex="1">
          <mxGeometry x="248.5" y="226" width="139" height="58" as="geometry" />
        </mxCell>
        <mxCell id="SwqbOc6EIea9CYFpNQk6-13" value="" style="endArrow=none;html=1;rounded=0;" parent="1" source="hRZYR1ejV4vaYIrMXX3N-1" target="SwqbOc6EIea9CYFpNQk6-1" edge="1">
          <mxGeometry width="50" height="50" relative="1" as="geometry">
            <mxPoint x="267" y="243" as="sourcePoint" />
            <mxPoint x="317" y="193" as="targetPoint" />
          </mxGeometry>
        </mxCell>
        <mxCell id="SwqbOc6EIea9CYFpNQk6-14" value="" style="endArrow=none;html=1;rounded=0;" parent="1" source="hRZYR1ejV4vaYIrMXX3N-1" target="SwqbOc6EIea9CYFpNQk6-11" edge="1">
          <mxGeometry width="50" height="50" relative="1" as="geometry">
            <mxPoint x="267" y="243" as="sourcePoint" />
            <mxPoint x="317" y="193" as="targetPoint" />
          </mxGeometry>
        </mxCell>
        <mxCell id="SwqbOc6EIea9CYFpNQk6-16" value="" style="endArrow=none;html=1;rounded=0;" parent="1" source="SwqbOc6EIea9CYFpNQk6-10" target="hRZYR1ejV4vaYIrMXX3N-1" edge="1">
          <mxGeometry width="50" height="50" relative="1" as="geometry">
            <mxPoint x="267" y="243" as="sourcePoint" />
            <mxPoint x="317" y="193" as="targetPoint" />
          </mxGeometry>
        </mxCell>
        <mxCell id="SwqbOc6EIea9CYFpNQk6-17" value="" style="endArrow=none;html=1;rounded=0;" parent="1" source="SwqbOc6EIea9CYFpNQk6-12" target="hRZYR1ejV4vaYIrMXX3N-1" edge="1">
          <mxGeometry width="50" height="50" relative="1" as="geometry">
            <mxPoint x="267" y="243" as="sourcePoint" />
            <mxPoint x="317" y="193" as="targetPoint" />
          </mxGeometry>
        </mxCell>
        <mxCell id="SwqbOc6EIea9CYFpNQk6-18" value="submit project requirement/&lt;br&gt;vacancies" style="ellipse;whiteSpace=wrap;html=1;" parent="1" vertex="1">
          <mxGeometry x="234" y="306" width="140" height="70" as="geometry" />
        </mxCell>
        <mxCell id="SwqbOc6EIea9CYFpNQk6-19" value="" style="endArrow=none;html=1;rounded=0;" parent="1" source="SwqbOc6EIea9CYFpNQk6-18" target="hRZYR1ejV4vaYIrMXX3N-1" edge="1">
          <mxGeometry width="50" height="50" relative="1" as="geometry">
            <mxPoint x="239" y="367" as="sourcePoint" />
            <mxPoint x="289" y="317" as="targetPoint" />
          </mxGeometry>
        </mxCell>
        <mxCell id="Z2HyTXzKA8MgmSh58620-1" value="update_inventory" style="ellipse;whiteSpace=wrap;html=1;" parent="1" vertex="1">
          <mxGeometry x="575" y="62" width="140" height="50" as="geometry" />
        </mxCell>
        <mxCell id="Z2HyTXzKA8MgmSh58620-2" value="purchase_store&lt;br&gt;_admin" style="shape=umlActor;verticalLabelPosition=bottom;verticalAlign=top;html=1;outlineConnect=0;" parent="1" vertex="1">
          <mxGeometry x="825" y="45" width="30" height="60" as="geometry" />
        </mxCell>
        <mxCell id="Z2HyTXzKA8MgmSh58620-3" value="" style="endArrow=none;html=1;rounded=0;" parent="1" source="Z2HyTXzKA8MgmSh58620-1" target="Z2HyTXzKA8MgmSh58620-2" edge="1">
          <mxGeometry width="50" height="50" relative="1" as="geometry">
            <mxPoint x="387" y="207" as="sourcePoint" />
            <mxPoint x="437" y="157" as="targetPoint" />
          </mxGeometry>
        </mxCell>
        <mxCell id="Z2HyTXzKA8MgmSh58620-4" value="RSPC_admin" style="shape=umlActor;verticalLabelPosition=bottom;verticalAlign=top;html=1;outlineConnect=0;" parent="1" vertex="1">
          <mxGeometry x="58" y="473" width="30" height="60" as="geometry" />
        </mxCell>
        <mxCell id="Z2HyTXzKA8MgmSh58620-5" value="issue_NOC" style="ellipse;whiteSpace=wrap;html=1;" parent="1" vertex="1">
          <mxGeometry x="222" y="432" width="116" height="44" as="geometry" />
        </mxCell>
        <mxCell id="Z2HyTXzKA8MgmSh58620-6" value="" style="endArrow=none;html=1;rounded=0;" parent="1" source="Z2HyTXzKA8MgmSh58620-5" target="Z2HyTXzKA8MgmSh58620-4" edge="1">
          <mxGeometry width="50" height="50" relative="1" as="geometry">
            <mxPoint x="369" y="493" as="sourcePoint" />
            <mxPoint x="419" y="443" as="targetPoint" />
          </mxGeometry>
        </mxCell>
        <mxCell id="Z2HyTXzKA8MgmSh58620-7" value="view_all_project_information" style="ellipse;whiteSpace=wrap;html=1;" parent="1" vertex="1">
          <mxGeometry x="203.5" y="502" width="153.5" height="44" as="geometry" />
        </mxCell>
        <mxCell id="Z2HyTXzKA8MgmSh58620-8" value="" style="endArrow=none;html=1;rounded=0;" parent="1" source="Z2HyTXzKA8MgmSh58620-7" target="Z2HyTXzKA8MgmSh58620-4" edge="1">
          <mxGeometry width="50" height="50" relative="1" as="geometry">
            <mxPoint x="369" y="493" as="sourcePoint" />
            <mxPoint x="419" y="443" as="targetPoint" />
          </mxGeometry>
        </mxCell>
        <mxCell id="Z2HyTXzKA8MgmSh58620-9" value="dean RSPC" style="shape=umlActor;verticalLabelPosition=bottom;verticalAlign=top;html=1;outlineConnect=0;" parent="1" vertex="1">
          <mxGeometry x="836" y="234" width="30" height="60" as="geometry" />
        </mxCell>
        <mxCell id="Z2HyTXzKA8MgmSh58620-10" value="approve/forward &lt;br&gt;fund_request" style="ellipse;whiteSpace=wrap;html=1;" parent="1" vertex="1">
          <mxGeometry x="596" y="206" width="140" height="48" as="geometry" />
        </mxCell>
        <mxCell id="Z2HyTXzKA8MgmSh58620-11" value="" style="endArrow=none;html=1;rounded=0;" parent="1" source="Z2HyTXzKA8MgmSh58620-10" target="Z2HyTXzKA8MgmSh58620-9" edge="1">
          <mxGeometry width="50" height="50" relative="1" as="geometry">
            <mxPoint x="439" y="373" as="sourcePoint" />
            <mxPoint x="489" y="323" as="targetPoint" />
          </mxGeometry>
        </mxCell>
        <mxCell id="Z2HyTXzKA8MgmSh58620-12" value="approve_staff_appointment" style="ellipse;whiteSpace=wrap;html=1;" parent="1" vertex="1">
          <mxGeometry x="580" y="276" width="168" height="53" as="geometry" />
        </mxCell>
        <mxCell id="Z2HyTXzKA8MgmSh58620-13" value="" style="endArrow=none;html=1;rounded=0;" parent="1" source="Z2HyTXzKA8MgmSh58620-12" target="Z2HyTXzKA8MgmSh58620-9" edge="1">
          <mxGeometry width="50" height="50" relative="1" as="geometry">
            <mxPoint x="439" y="373" as="sourcePoint" />
            <mxPoint x="489" y="323" as="targetPoint" />
          </mxGeometry>
        </mxCell>
        <mxCell id="Z2HyTXzKA8MgmSh58620-14" value="director" style="shape=umlActor;verticalLabelPosition=bottom;verticalAlign=top;html=1;outlineConnect=0;" parent="1" vertex="1">
          <mxGeometry x="849" y="595" width="30" height="60" as="geometry" />
        </mxCell>
        <mxCell id="Z2HyTXzKA8MgmSh58620-15" value="approve_fund_request" style="ellipse;whiteSpace=wrap;html=1;" parent="1" vertex="1">
          <mxGeometry x="608" y="568" width="140" height="47" as="geometry" />
        </mxCell>
        <mxCell id="Z2HyTXzKA8MgmSh58620-16" value="" style="endArrow=none;html=1;rounded=0;" parent="1" source="Z2HyTXzKA8MgmSh58620-15" target="Z2HyTXzKA8MgmSh58620-14" edge="1">
          <mxGeometry width="50" height="50" relative="1" as="geometry">
            <mxPoint x="439" y="373" as="sourcePoint" />
            <mxPoint x="489" y="323" as="targetPoint" />
          </mxGeometry>
        </mxCell>
        <mxCell id="Z2HyTXzKA8MgmSh58620-17" value="forward_fund_request" style="ellipse;whiteSpace=wrap;html=1;" parent="1" vertex="1">
          <mxGeometry x="612" y="403" width="142" height="48" as="geometry" />
        </mxCell>
        <mxCell id="Z2HyTXzKA8MgmSh58620-18" value="dept head" style="shape=umlActor;verticalLabelPosition=bottom;verticalAlign=top;html=1;outlineConnect=0;" parent="1" vertex="1">
          <mxGeometry x="849" y="439" width="30" height="60" as="geometry" />
        </mxCell>
        <mxCell id="Z2HyTXzKA8MgmSh58620-19" value="forward_staff_appointment&lt;br&gt;request" style="ellipse;whiteSpace=wrap;html=1;" parent="1" vertex="1">
          <mxGeometry x="599" y="469" width="168" height="64" as="geometry" />
        </mxCell>
        <mxCell id="Z2HyTXzKA8MgmSh58620-20" value="" style="endArrow=none;html=1;rounded=0;" parent="1" source="Z2HyTXzKA8MgmSh58620-17" target="Z2HyTXzKA8MgmSh58620-18" edge="1">
          <mxGeometry width="50" height="50" relative="1" as="geometry">
            <mxPoint x="439" y="485" as="sourcePoint" />
            <mxPoint x="489" y="435" as="targetPoint" />
          </mxGeometry>
        </mxCell>
        <mxCell id="Z2HyTXzKA8MgmSh58620-21" value="" style="endArrow=none;html=1;rounded=0;" parent="1" source="Z2HyTXzKA8MgmSh58620-19" target="Z2HyTXzKA8MgmSh58620-18" edge="1">
          <mxGeometry width="50" height="50" relative="1" as="geometry">
            <mxPoint x="439" y="485" as="sourcePoint" />
            <mxPoint x="489" y="435" as="targetPoint" />
          </mxGeometry>
        </mxCell>
        <mxCell id="Z2HyTXzKA8MgmSh58620-22" value="manage_fund_approval" style="ellipse;whiteSpace=wrap;html=1;" parent="1" vertex="1">
          <mxGeometry x="214" y="566" width="138" height="51" as="geometry" />
        </mxCell>
        <mxCell id="Z2HyTXzKA8MgmSh58620-23" value="manage_staff_appointment" style="ellipse;whiteSpace=wrap;html=1;" parent="1" vertex="1">
          <mxGeometry x="201.5" y="637" width="172.5" height="56" as="geometry" />
        </mxCell>
        <mxCell id="Z2HyTXzKA8MgmSh58620-24" value="" style="endArrow=none;html=1;rounded=0;" parent="1" source="Z2HyTXzKA8MgmSh58620-22" target="Z2HyTXzKA8MgmSh58620-4" edge="1">
          <mxGeometry width="50" height="50" relative="1" as="geometry">
            <mxPoint x="439" y="571" as="sourcePoint" />
            <mxPoint x="489" y="521" as="targetPoint" />
          </mxGeometry>
        </mxCell>
        <mxCell id="Z2HyTXzKA8MgmSh58620-25" value="" style="endArrow=none;html=1;rounded=0;" parent="1" source="Z2HyTXzKA8MgmSh58620-23" target="Z2HyTXzKA8MgmSh58620-4" edge="1">
          <mxGeometry width="50" height="50" relative="1" as="geometry">
            <mxPoint x="439" y="571" as="sourcePoint" />
            <mxPoint x="489" y="521" as="targetPoint" />
          </mxGeometry>
        </mxCell>
        <mxCell id="6jmASLI1tqj_Hf3TqdEN-1" value="manage_all_projects" style="ellipse;whiteSpace=wrap;html=1;" vertex="1" parent="1">
          <mxGeometry x="145" y="704" width="172.5" height="56" as="geometry" />
        </mxCell>
        <mxCell id="6jmASLI1tqj_Hf3TqdEN-2" value="" style="endArrow=none;html=1;rounded=0;" edge="1" parent="1" source="6jmASLI1tqj_Hf3TqdEN-1" target="Z2HyTXzKA8MgmSh58620-4">
          <mxGeometry width="50" height="50" relative="1" as="geometry">
            <mxPoint x="264" y="649" as="sourcePoint" />
            <mxPoint x="98" y="524" as="targetPoint" />
          </mxGeometry>
        </mxCell>
      </root>
    </mxGraphModel>
  </diagram>
</mxfile>
